Coordinates
version=1
nRows=9
nColumns=63
inDegrees=yes

Units are S.I. units (second, meters, Newtons, ...)
If the header above contains a line with 'inDegrees', this indicates whether rotational values are in degrees (yes) or radians (no).

endheader
time	pelvis_tilt	pelvis_list	pelvis_rotation	pelvis_tx	pelvis_ty	pelvis_tz	hip_flexion_r	hip_adduction_r	hip_rotation_r	knee_angle_r	knee_angle_r_beta	ankle_angle_r	subtalar_angle_r	mtp_angle_r	hip_flexion_l	hip_adduction_l	hip_rotation_l	knee_angle_l	knee_angle_l_beta	ankle_angle_l	subtalar_angle_l	mtp_angle_l	L5_S1_Flex_Ext	L5_S1_Lat_Bending	L5_S1_axial_rotation	L4_L5_Flex_Ext	L4_L5_Lat_Bending	L4_L5_axial_rotation	L3_L4_Flex_Ext	L3_L4_Lat_Bending	L3_L4_axial_rotation	L2_L3_Flex_Ext	L2_L3_Lat_Bending	L2_L3_axial_rotation	L1_L2_Flex_Ext	L1_L2_Lat_Bending	L1_L2_axial_rotation	L1_T12_Flex_Ext	L1_T12_Lat_Bending	L1_T12_axial_rotation	Abs_r3	Abs_r2	Abs_r1	Abs_t1	Abs_t2	neck_flexion	neck_bending	neck_rotation	arm_flex_r	arm_add_r	arm_rot_r	elbow_flex_r	pro_sup_r	wrist_flex_r	wrist_dev_r	arm_flex_l	arm_add_l	arm_rot_l	elbow_flex_l	pro_sup_l	wrist_flex_l	wrist_dev_l
      4.25423729	      4.33678932	     -3.69523477	    103.88259918	      0.26918182	      0.90519565	      0.46054688	    -10.20705088	      5.74388673	      1.93726051	      0.55364632	      0.00966295	     28.84736373	    -10.89435872	      0.00000000	     -5.75058684	     -7.73226621	      9.75545419	      3.94017281	      0.06876899	     34.99421722	      5.68488314	      0.00000000	      0.10778588	      0.31595636	     -1.25256599	      0.20016916	      0.42022196	     -1.33085137	      0.17708142	      0.76821630	     -1.33085137	      0.12318848	      0.76821630	     -1.09599524	      0.10008997	      0.64429821	     -1.01770987	      0.06158885	      0.48941640	     -0.93942449	      0.76990377	      3.57416156	     -6.96639628	      0.00000000	      0.00000000	     28.15625169	     -4.45324213	     -4.16554547	      9.67541776	    -45.16334063	     40.22607705	      6.16424117	     37.39759700	    -10.46716629	     10.68688553	     17.69157073	    -48.43901123	    106.91721574	      5.46600866	     24.44029894	     -7.50615002	     11.15434819
      4.27118644	      3.41925038	     -3.59205114	    103.96268002	      0.26938594	      0.90533337	      0.46057474	    -10.75683643	      4.95132007	      2.29934149	      0.58238460	      0.01016453	     28.18380004	    -12.02450522	      0.00000000	     -6.25881279	     -6.83691125	     10.48519331	      3.33677275	      0.05823767	     34.60725508	      4.72074273	      0.00000000	      0.08128150	      0.21436751	     -1.33533291	      0.15094788	      0.28510879	     -1.41879122	      0.13353738	      0.52121317	     -1.41879122	      0.09289663	      0.52121317	     -1.16841630	      0.07547800	      0.43713824	     -1.08495799	      0.04644425	      0.33205528	     -1.00149969	      0.58058566	      2.42496820	     -7.42672107	      0.00000000	      0.00000000	     28.15222810	     -4.57393996	     -4.50151766	     10.36468726	    -44.66136346	     40.75041536	      5.83688159	     38.51666226	    -10.30025919	     10.42913880	     17.28488870	    -48.88430301	    102.28862219	      5.81259217	     22.81780959	     -8.74267419	     11.38692756
      4.28813559	      2.71393997	     -3.55653836	    103.79848359	      0.26978587	      0.90551858	      0.46069437	    -11.12907559	      4.28640113	      2.41921587	      0.62592443	      0.01092444	     27.74767754	    -12.22832546	      0.00000000	     -6.57957005	     -6.11970785	     10.62918016	      2.96785532	      0.05179885	     34.49062859	      4.33829348	      0.00000000	      0.07019181	      0.14254152	     -1.29648870	      0.13035322	      0.18958022	     -1.37751924	      0.11531813	      0.34657544	     -1.37751924	      0.08022222	      0.34657544	     -1.13442761	      0.06518012	      0.29067066	     -1.05339707	      0.04010760	      0.22079681	     -0.97236652	      0.50137310	      1.61245814	     -7.21068119	      0.00000000	      0.00000000	     28.16150636	     -4.77590117	     -4.73583784	     10.37746223	    -44.45412173	     40.83961901	      5.73250226	     39.25178168	    -10.13575404	     10.51527368	     17.82094363	    -48.88732014	    100.02780898	      5.98953840	     21.08102564	     -9.34831107	     11.03964465
      4.30508475	      2.53154261	     -3.44922056	    103.48811699	      0.26986471	      0.90575107	      0.46047622	    -11.40435041	      4.09923119	      3.34392565	      0.63112876	      0.01101527	     27.20832931	    -13.10715027	      0.00000000	     -7.24157731	     -5.83118798	     16.54137931	      1.95736397	      0.03416245	     32.78299618	     -4.00760320	      0.00000000	      0.07521983	      0.15085407	     -1.29729376	      0.13969075	      0.20063592	     -1.37837462	      0.12357866	      0.36678659	     -1.37837462	      0.08596875	      0.36678659	     -1.13513204	      0.06984914	      0.30762162	     -1.05405118	      0.04298061	      0.23367296	     -0.97297032	      0.53728774	      1.70649144	     -7.21515873	      0.00000000	      0.00000000	     28.15515788	     -4.80607130	     -3.76398996	     11.07958260	    -43.74911169	     27.16490225	      4.99134786	     54.38317056	    -10.14288138	     10.83886226	     17.43786823	    -48.47062692	     94.73297018	      6.17710249	     21.06126068	    -10.64870061	     10.12896147
      4.32203390	      2.32702609	     -3.43767508	    103.58862483	      0.26968544	      0.90619758	      0.46038866	    -11.48787039	      3.92768995	      3.35309793	      0.63244235	      0.01103820	     27.30526999	    -13.03383760	      0.00000000	     -7.33957208	     -5.64880844	     16.61623758	      1.79993276	      0.03141475	     32.75582521	     -3.91487198	      0.00000000	      0.08582203	      0.14834315	     -1.29359738	      0.15938009	      0.19729639	     -1.37444722	      0.14099701	      0.36068153	     -1.37444722	      0.09808600	      0.36068153	     -1.13189771	      0.07969433	      0.30250135	     -1.05104787	      0.04903871	      0.22978353	     -0.97019804	      0.61301816	      1.67808735	     -7.19460056	      0.00000000	      0.00000000	     28.15158907	     -5.08935705	     -3.32228697	     11.01260102	    -43.66936124	     27.19268315	      4.65549171	     54.56219273	    -10.15393999	     10.93664210	     18.14517228	    -47.94240127	     94.63094191	      6.17755488	     20.91841372	    -10.77351924	      9.90937788
      4.33898305	      2.19974346	     -3.17313394	    103.67654537	      0.26922372	      0.90713605	      0.46003499	    -11.74808596	      3.85766792	      3.17249274	      0.61843030	      0.01079364	     27.69846941	    -12.58586095	      0.00000000	     -7.79734394	     -5.60297470	     16.77440753	      1.48262501	      0.02587669	     32.54707724	     -3.93053266	      0.00000000	      0.06049892	      0.16857874	     -1.31313487	      0.11235254	      0.22420972	     -1.39520580	      0.09939367	      0.40988234	     -1.39520580	      0.06914421	      0.40988234	     -1.14899301	      0.05617929	      0.34376576	     -1.06692208	      0.03456908	      0.26112846	     -0.98485115	      0.43213771	      1.90699638	     -7.30326219	      0.00000000	      0.00000000	     28.13795398	     -5.50392632	     -2.40569458	     11.13311240	    -43.67807171	     26.88476392	      4.38095990	     55.30587130	     -9.99213261	     11.05319825	     18.57958902	    -47.27655093	     95.68361285	      6.17169807	     21.44751996	    -11.15577974	      9.53148560
      4.35593220	      2.29618495	     -2.98667071	    103.92932612	      0.26871379	      0.90802591	      0.46009691	    -11.76760722	      3.99443129	      1.24170513	      0.65213188	      0.01138185	     28.84432066	     -9.68291169	      0.00000000	     -8.03106043	     -5.76081266	     19.49944980	      1.25270668	      0.02186386	     31.75396090	     -7.16677447	      0.00000000	      0.04755177	      0.20842063	     -1.33815990	      0.08830839	      0.27719943	     -1.42179489	      0.07812280	      0.50675391	     -1.42179489	      0.05434692	      0.50675391	     -1.17088991	      0.04415657	      0.42501134	     -1.08725492	      0.02717108	      0.32284355	     -1.00361993	      0.33965753	      2.35769582	     -7.44244392	      0.00000000	      0.00000000	     28.10285749	     -5.88157646	     -1.64462624	     11.46129439	    -43.30273822	     13.92572706	      4.01744870	     68.63309101	    -10.49476676	     11.28386397	     19.71951602	    -46.44062629	    106.03074095	      5.70892873	     16.70058246	    -10.13789892	      9.84542696
      4.37288136	      2.43600443	     -2.84585285	    104.06717928	      0.26843111	      0.90901684	      0.46028761	    -11.72027624	      4.16724552	      1.24923970	      0.63440296	      0.01107242	     29.22558474	     -9.55600711	      0.00000000	     -8.09826027	     -5.94570285	     19.73253277	      1.23487866	      0.02155270	     31.63977685	     -7.15955820	      0.00000000	      0.03517651	      0.24884034	     -1.35774367	      0.06532631	      0.33095765	     -1.44260265	      0.05779150	      0.60503040	     -1.44260265	      0.04020324	      0.60503040	     -1.18802571	      0.03266491	      0.50743522	     -1.10316673	      0.02009986	      0.38545369	     -1.01830775	      0.25126233	      2.81493169	     -7.55136297	      0.00000000	      0.00000000	     28.06246079	     -6.09497248	     -0.74407709	     11.76125682	    -43.29661391	     14.11365826	      3.96771519	     68.83902569	    -10.72292946	     11.46452433	     20.24744729	    -45.54847364	    109.85856493	      5.19756490	     20.40780735	     -9.58528724	      9.76982304
      4.38983051	      2.33148044	     -2.77566682	    103.99344771	      0.26861876	      0.90991548	      0.46060043	    -11.67684833	      4.04783061	      1.09432829	      0.65063874	      0.01135579	     29.55761754	     -9.10920999	      0.00000000	     -8.12701328	     -5.82086888	     19.99148944	      1.29553536	      0.02261136	     31.31613253	     -7.60816899	      0.00000000	      0.01999793	      0.24711251	     -1.30618883	      0.03713816	      0.32865964	     -1.38782563	      0.03285460	      0.60082936	     -1.38782563	      0.02285564	      0.60082936	     -1.14291523	      0.01857008	      0.50391183	     -1.06127843	      0.01142682	      0.38277728	     -0.97964162	      0.14284324	      2.79538613	     -7.26463042	      0.00000000	      0.00000000	     28.01873801	     -6.50898184	     -0.62237141	     11.86252048	    -43.18018412	     14.75778820	      4.25966061	     68.97444965	    -10.58326925	     11.65807516	     21.25225241	    -44.72173697	    115.90982740	      4.44758411	     26.14263112	     -8.16075869	     10.37233918
